<svg id="email" data-name="email" xmlns="http://www.w3.org/2000/svg" width="45" height="30">
    <defs>
        <style>
            .cls-3{fill:#77e1cf}
        </style>
    </defs>
    <path id="Path" d="M42.825 14.325a4.687 4.687 0 0 1-3.6 1.687H3.6A4.687 4.687 0 0 1 0 14.325L17.194 0l1.781 1.219a4.292 4.292 0 0 0 4.875 0L25.631 0z" transform="translate(1.088 13.988)" style="fill:#3ed3b9"/>
    <path id="Path-2" data-name="Path" d="M43.35 2.044 25.894 13.988l-1.781 1.219a4.292 4.292 0 0 1-4.875 0l-1.781-1.219L0 2.025A4.708 4.708 0 0 1 3.863 0h35.624a4.625 4.625 0 0 1 3.863 2.044z" transform="translate(.825)" style="fill:#94fbe9"/>
    <g id="Group" transform="translate(0 2.025)">
        <path id="Path-3" data-name="Path" class="cls-3" d="M18.281 11.962 1.088 26.287a4.666 4.666 0 0 1-1.087-3V2.662A4.62 4.62 0 0 1 .825 0z"/>
        <path id="Path-4" data-name="Path" class="cls-3" d="M18.281 2.644v20.625a4.667 4.667 0 0 1-1.087 3L0 11.944 17.456 0a4.6 4.6 0 0 1 .825 2.644z" transform="translate(26.719 .019)"/>
    </g>
</svg>
