<svg id="ic_group_delete" xmlns="http://www.w3.org/2000/svg" width="15.997" height="16" viewBox="0 0 15.997 16">
  <defs>
    <style>
      .cls-1 {
        fill: #eaeaea;
      }
    </style>
  </defs>
  <path id="Shape" class="cls-1" d="M8,16H8A8,8,0,0,1,2.343,2.344,8,8,0,1,1,13.657,13.658,7.946,7.946,0,0,1,8,16ZM5.605,5.034a.568.568,0,0,0-.4.167.575.575,0,0,0-.031.776L7.194,8,5.171,10.051a.57.57,0,0,0,.806.806L8,8.806l2.053,2.05a.566.566,0,0,0,.4.167.579.579,0,0,0,.406-1L8.8,8l2.052-2.023a.58.58,0,1,0-.834-.806L8,7.195,5.977,5.171A.572.572,0,0,0,5.605,5.034Z" transform="translate(-0.003 0)"/>
</svg>
