<svg id="ic_Item_delete" xmlns="http://www.w3.org/2000/svg" width="24" height="24" viewBox="0 0 24 24">
  <defs>
    <style>
      .cls-1 {
        fill: none;
      }

      .cls-2 {
        fill: #979ca0;
      }
    </style>
  </defs>
  <rect id="Rectangle_Copy_49" data-name="Rectangle Copy 49" class="cls-1" width="24" height="24"/>
  <path id="Fill_1166" data-name="Fill 1166" class="cls-2" d="M7.816,14H3.184a1.687,1.687,0,0,1-1.64-1.557L.608,3.5H.55A.568.568,0,0,1,0,2.917a.568.568,0,0,1,.55-.583H3.3V1.75A1.7,1.7,0,0,1,4.95,0h1.1A1.7,1.7,0,0,1,7.7,1.75v.584h2.75a.568.568,0,0,1,.55.583.568.568,0,0,1-.55.583h-.058l-.937,8.943A1.687,1.687,0,0,1,7.816,14ZM1.715,3.5l.923,8.814a.563.563,0,0,0,.546.519H7.816a.563.563,0,0,0,.546-.519L9.285,3.5H1.715ZM4.95,1.166a.568.568,0,0,0-.55.583v.584H6.6V1.75a.568.568,0,0,0-.55-.583ZM6.6,11.083a.568.568,0,0,1-.55-.583V5.833a.551.551,0,1,1,1.1,0V10.5A.568.568,0,0,1,6.6,11.083Zm-2.2,0a.568.568,0,0,1-.55-.583V5.833a.551.551,0,1,1,1.1,0V10.5A.568.568,0,0,1,4.4,11.083Z" transform="translate(7 5)"/>
</svg>
