<svg data-name="ic/menu/ic_menu_home_off" xmlns="http://www.w3.org/2000/svg" width="24" height="24" viewBox="0 0 24 24" fill="#A7A7A7" >
    <path d="M9.042.432a1.473 1.473 0 0 0-2.083 0L.434 6.955l-.007.007a1.472 1.472 0 0 0 .98 2.51h.305v4.8A1.726 1.726 0 0 0 3.438 16h2.554a.469.469 0 0 0 .469-.469v-3.765a.787.787 0 0 1 .787-.786h1.505a.787.787 0 0 1 .787.786v3.766a.469.469 0 0 0 .469.469h2.554a1.726 1.726 0 0 0 1.724-1.724v-4.8h.241a1.473 1.473 0 0 0 1.042-2.518z" transform="translate(4 4)" fill="current" />
</svg>
