<svg id="ic_menu_ic_menu_White_QNA_off" data-name="ic/menu/ic_menu_White_QNA_off" xmlns="http://www.w3.org/2000/svg" width="24" height="24" viewBox="0 0 24 24" fill="#a7a7a7">
  <path id="Shape" d="M10.2,16a.607.607,0,0,1-.6-.616V14.153a.6.6,0,1,1,1.2,0v.616H12a2.41,2.41,0,0,0,2.315-1.846H13.8a.607.607,0,0,1-.6-.616V6.154a.607.607,0,0,1,.6-.616h.559A4.848,4.848,0,0,0,9.6,1.231H8.4A4.848,4.848,0,0,0,3.641,5.539H4.2a.607.607,0,0,1,.6.616v6.153a.607.607,0,0,1-.6.616H2.624A2.661,2.661,0,0,1,0,10.232v-2A2.659,2.659,0,0,1,2.429,5.558,6.068,6.068,0,0,1,8.4,0H9.6a6.068,6.068,0,0,1,5.971,5.558A2.659,2.659,0,0,1,18,8.23v2a2.659,2.659,0,0,1-2.452,2.673A3.63,3.63,0,0,1,12,16Z" transform="translate(3 4)" fill="current"/>
</svg>
