<svg data-name="ic/menu/ic_menu_board_off" xmlns="http://www.w3.org/2000/svg" width="24" height="24" viewBox="0 0 24 24" fill="#a7a7a7">
    <path data-name="Combined Shape" d="M5.661 12.75a1.568 1.568 0 0 1 0-3.135h9.32a1.568 1.568 0 0 1 0 3.135zM0 11.182a1.545 1.545 0 0 1 1.519-1.566 1.568 1.568 0 0 1 0 3.135A1.545 1.545 0 0 1 0 11.182zm5.661-3.24a1.568 1.568 0 0 1 0-3.135h9.32a1.568 1.568 0 0 1 0 3.135zM0 6.375a1.545 1.545 0 0 1 1.519-1.567 1.568 1.568 0 0 1 0 3.135A1.546 1.546 0 0 1 0 6.375zm5.661-3.24a1.545 1.545 0 0 1-1.519-1.567A1.545 1.545 0 0 1 5.661 0h9.32A1.545 1.545 0 0 1 16.5 1.568a1.545 1.545 0 0 1-1.518 1.567zM0 1.567A1.545 1.545 0 0 1 1.519 0a1.545 1.545 0 0 1 1.519 1.567 1.546 1.546 0 0 1-1.519 1.568A1.546 1.546 0 0 1 0 1.567z" fill="current" transform="translate(3.75 6)"/>
</svg>
