<svg id="menu_ic_menu_근로자_관리" data-name="menu/ic_menu_근로자 관리" xmlns="http://www.w3.org/2000/svg" width="24" height="24" viewBox="0 0 24 24" fill="#a7a7a7">
  <path id="Combined_Shape" data-name="Combined Shape" d="M15,18H0V0H15V18h0ZM1.25,16.8h12.5V1.2H1.25ZM2.5,15V13.8h10V15Zm0-2.4V11.4h10v1.2Zm6.875-2.4V8.876a.488.488,0,0,0-.5-.476H6.121a.487.487,0,0,0-.5.476V10.2H4.375V8.876A1.717,1.717,0,0,1,6.121,7.2H8.879a1.717,1.717,0,0,1,1.746,1.676V10.2ZM5.313,4.5A2.147,2.147,0,0,1,7.5,2.4,2.147,2.147,0,0,1,9.688,4.5,2.147,2.147,0,0,1,7.5,6.6,2.148,2.148,0,0,1,5.313,4.5Zm1.25,0A.938.938,0,1,0,7.5,3.6.921.921,0,0,0,6.563,4.5Z" transform="translate(5 3)" fill="current" />
</svg>