<svg data-name="ic/menu/ic_menu_magazine_off" xmlns="http://www.w3.org/2000/svg" width="24" height="24" viewBox="0 0 24 24" fill="#a7a7a7">
    <path data-name="Combined Shape" d="M10.375 13.532v-3.266h2.813v3.266a.469.469 0 0 1-.8.33l-.607-.6-.606.6a.459.459 0 0 1-.327.137.468.468 0 0 1-.473-.467zm3.749-1.4v-1.867a.468.468 0 0 0 .438-.465V.933h.968A.468.468 0 0 1 16 1.4v10.266a.468.468 0 0 1-.469.467zm-13.656 0A.468.468 0 0 1 0 11.666V1.4A.467.467 0 0 1 .469.933h.968V9.8a.468.468 0 0 0 .469.467h4.219a1.391 1.391 0 0 1 1.21.7.468.468 0 0 0 .405.232h.52a.468.468 0 0 0 .4-.232 1.4 1.4 0 0 1 .772-.631v1.8zm8-10.733A1.4 1.4 0 0 1 9.875 0h3.281a.467.467 0 0 1 .469.466v8.867h-3.75a2.336 2.336 0 0 0-1.406.474zM6.125 9.333h-3.75V.466A.467.467 0 0 1 2.844 0h3.281a1.4 1.4 0 0 1 1.406 1.4v8.407a2.338 2.338 0 0 0-1.406-.474z" fill="current" transform="translate(4 5)"/>
</svg>
