<svg data-name="ic/menu/ic_menu_SELIS_off" xmlns="http://www.w3.org/2000/svg" width="24" height="24" viewBox="0 0 24 24" fill="#a7a7a7">
    <path data-name="Combined Shape" d="M9.906 16a.469.469 0 0 1-.469-.469v-.938a1.408 1.408 0 0 1 1.407-1.406h3.749A1.408 1.408 0 0 1 16 14.594v.938a.469.469 0 0 1-.469.469zm-8.443-1.279L.137 13.4a.47.47 0 0 1 0-.663L5.53 7.339a3.432 3.432 0 0 1 1.237.753 3.44 3.44 0 0 1 .751 1.237l-5.392 5.392a.469.469 0 0 1-.662 0zm8.618-3.315-.857-.857a.468.468 0 0 1 0-.663L13.2 5.909a.47.47 0 0 1 .663 0l.857.857a.469.469 0 0 1 0 .663l-3.977 3.977a.468.468 0 0 1-.663 0zM7.43 7.43a4.509 4.509 0 0 0-1.865-1.067c.049-.043 4.061-4.053 4.114-4.114a4.542 4.542 0 0 0 1.066 1.866 4.522 4.522 0 0 0 1.864 1.067c-.049.044-4.06 4.052-4.113 4.113A4.494 4.494 0 0 0 7.43 7.43zM4.309 5.635l-.858-.857a.47.47 0 0 1 0-.663L7.43.138a.468.468 0 0 1 .663 0l.857.857a.47.47 0 0 1 0 .663L4.972 5.635a.469.469 0 0 1-.662 0z" fill="current" transform="translate(4 4)"/>
</svg>
