<svg data-name="ic/menu/ic_menu_support_off" xmlns="http://www.w3.org/2000/svg" width="24" height="24" viewBox="0 0 24 24" fill="#A7A7A7">
    <path data-name="Combined Shape" d="M15.749 18h-4.4l-.913-4.421 1.264-2.307a6.755 6.755 0 0 1 4.045 6.2V18zm-4.083-2.851h1.116v-1.056h-1.116zM7.844 18l.821-3.977h.793L10.28 18zm-5.47 0v-.528a6.761 6.761 0 0 1 4.046-6.2l1.269 2.308L6.775 18zm6.174-5.033L7.629 11.3a4.391 4.391 0 0 1-1.359-.762 4.475 4.475 0 0 1-1.616-3.024L6.1 8.3V6.429h2.758V2.6c.068 0 .136-.005.2-.005a4.478 4.478 0 0 1 2.792 7.941 4.411 4.411 0 0 1-1.359.762l-.92 1.672zM5.055 6.534 2.911 5.373H0V0h7.812v5.373H5.057v1.162zM2.046 3.156h3.72V2.1h-3.72z" fill="current" transform="translate(4.5 3)"/>
</svg>
