<svg id="icon_ic_Join_audit" data-name="icon/ic_Join_audit" xmlns="http://www.w3.org/2000/svg" width="56" height="56" viewBox="0 0 56 56">
    <defs>
        <style>
            .cls-1{fill:#3ec5d1}.cls-2{fill:#37b0ba}.cls-3{fill:#fff}
        </style>
    </defs>
    <path id="Fill_1" data-name="Fill 1" class="cls-1" d="M28 0A28 28 0 1 1 0 28 28 28 0 0 1 28 0"/>
    <path id="Fill_5" data-name="Fill 5" class="cls-2" d="M31.682 2.861V34.7a2.861 2.861 0 0 1-2.861 2.861H2.861A2.861 2.861 0 0 1 0 34.7V10.923L10.923 0h17.9a2.861 2.861 0 0 1 2.861 2.861" transform="translate(12.737 9.799)"/>
    <path id="Fill_7" data-name="Fill 7" class="cls-3" d="M31.682 2.861V34.7a2.861 2.861 0 0 1-2.861 2.861H2.861A2.861 2.861 0 0 1 0 34.7V10.923L10.923 0h17.9a2.861 2.861 0 0 1 2.861 2.861" transform="translate(11.581 8.645)"/>
    <path id="Fill_9" data-name="Fill 9" d="M31.432 2.616v31.833a2.863 2.863 0 0 1-2.862 2.863H2.61A2.864 2.864 0 0 1 0 35.618a2.891 2.891 0 0 0 1.156.24h19.8a9.023 9.023 0 0 0 9.023-9.023V1.162A2.818 2.818 0 0 0 29.732 0a2.862 2.862 0 0 1 1.7 2.616" transform="translate(11.83 8.891)" style="fill:#f2f2f2"/>
    <path id="Fill_11" data-name="Fill 11" d="M11.63 0v8.584a3.046 3.046 0 0 1-3.046 3.046H0v-.708L10.922 0z" transform="translate(11.582 8.645)" style="fill:#ededed"/>
    <path id="Fill_13" data-name="Fill 13" d="M10.923 0v8.062a2.861 2.861 0 0 1-2.861 2.861H0z" transform="translate(11.581 8.645)" fill="#37b0ba" />
    <path id="Fill_15" data-name="Fill 15" class="cls-1" d="M14.348 7.174A7.174 7.174 0 1 1 7.174 0a7.173 7.173 0 0 1 7.174 7.174" transform="translate(20.249 22.73)"/>
    <path id="Fill_17" data-name="Fill 17" class="cls-3" d="M2.772 6.026a.729.729 0 0 1-.517-.214L.214 3.771a.731.731 0 0 1 1.034-1.034L2.772 4.26 6.818.215a.731.731 0 0 1 1.034 1.033L3.289 5.811a.729.729 0 0 1-.517.214" transform="translate(23.389 26.891)"/>
</svg>
