<svg xmlns="http://www.w3.org/2000/svg" width="24" height="24" viewBox="0 0 24 24">
    <path style="fill:none" d="M0 0h24v24H0z"/>
    <g data-name="그룹 934">
        <path data-name="Fill 1" d="M11.208 19H7.8a1 1 0 0 1-1-1v-1.19a5.5 5.5 0 0 1-.562-.233l-.842.841a1 1 0 0 1-1.414 0l-2.4-2.4a1 1 0 0 1 0-1.414l.842-.843a8.149 8.149 0 0 1-.23-.558H1a1 1 0 0 1-1-1V7.8a1 1 0 0 1 1-1h1.19c.073-.2.152-.384.232-.56l-.843-.84a1 1 0 0 1 0-1.414l2.4-2.4a1 1 0 0 1 1.414 0l.844.842c.2-.091.383-.167.56-.232V1a1 1 0 0 1 1-1h3.4a1 1 0 0 1 1 1v1.19c.19.07.373.146.559.232l.844-.842a1 1 0 0 1 1.414 0l2.4 2.4a1 1 0 0 1 0 1.414l-.843.842c.087.191.166.38.233.561H18a1 1 0 0 1 1 1v3.4a1 1 0 0 1-1 1h-1.19c-.073.2-.152.384-.232.56l.842.842a1 1 0 0 1 0 1.414l-2.4 2.4a1 1 0 0 1-1.414 0l-.842-.841a7.54 7.54 0 0 1-.56.232v1.19A1 1 0 0 1 11.208 19zm-5.152-4.65a1 1 0 0 1 .509.14 5.66 5.66 0 0 0 1.488.618 1 1 0 0 1 .751.967V17h1.4v-.924a1 1 0 0 1 .751-.967 5.72 5.72 0 0 0 1.488-.617 1 1 0 0 1 1.216.154l.655.653.99-.99-.654-.653a1 1 0 0 1-.154-1.216 5.739 5.739 0 0 0 .618-1.49 1 1 0 0 1 .968-.75h.925V8.8h-.925a1 1 0 0 1-.968-.749A5.754 5.754 0 0 0 14.5 6.56a1 1 0 0 1 .154-1.216l.646-.654-.99-.989-.655.654a1 1 0 0 1-1.216.154 5.726 5.726 0 0 0-1.487-.617 1 1 0 0 1-.751-.967V2H8.8v.924a1 1 0 0 1-.751.967 5.72 5.72 0 0 0-1.488.617 1 1 0 0 1-1.216-.154L4.692 3.7l-.992.99.655.655a1 1 0 0 1 .154 1.216 5.733 5.733 0 0 0-.618 1.49 1 1 0 0 1-.968.749H2v1.4h.925a1 1 0 0 1 .97.752 5.653 5.653 0 0 0 .616 1.487 1 1 0 0 1-.155 1.215l-.655.655.99.99.655-.654a1 1 0 0 1 .71-.295z" transform="translate(3 3)" style="fill:#101314"/>
        <path data-name="Fill 3" d="M3.5 7A3.5 3.5 0 1 1 7 3.5 3.5 3.5 0 0 1 3.5 7zm0-5A1.5 1.5 0 1 0 5 3.5 1.5 1.5 0 0 0 3.5 2z" transform="translate(9.004 9)" style="fill:#3ec5d1"/>
    </g>
</svg>
