<svg id="icon_ic_Join_audit3" data-name="icon/ic_Join_audit3" xmlns="http://www.w3.org/2000/svg" width="56" height="56" viewBox="0 0 56 56">
    <defs>
        <style>
            .cls-4{fill:#ededed}.cls-5{fill:#3a3e41}.cls-6{fill:none;stroke:#fff;stroke-linecap:round;stroke-linejoin:round;stroke-miterlimit:10}
        </style>
    </defs>
    <g id="Group_3" data-name="Group 3">
        <path id="Fill_1" data-name="Fill 1" d="M28 0A28 28 0 1 1 0 28 28 28 0 0 1 28 0" style="fill:#c6cbd0"/>
    </g>
    <path id="Fill_4" data-name="Fill 4" d="M31.682 2.861V34.7a2.861 2.861 0 0 1-2.861 2.861H2.861A2.861 2.861 0 0 1 0 34.7V10.923L10.923 0h17.9a2.861 2.861 0 0 1 2.861 2.861" transform="translate(12.736 9.799)" style="fill:#c8c9ca"/>
    <path id="Fill_6" data-name="Fill 6" d="M31.682 2.861V34.7a2.861 2.861 0 0 1-2.861 2.861H2.861A2.861 2.861 0 0 1 0 34.7V10.923L10.923 0h17.9a2.861 2.861 0 0 1 2.861 2.861" transform="translate(11.581 8.645)" style="fill:#fff"/>
    <path id="Fill_8" data-name="Fill 8" class="cls-4" d="M31.433 2.616V34.45a2.862 2.862 0 0 1-2.862 2.862H2.61A2.865 2.865 0 0 1 0 35.618a2.891 2.891 0 0 0 1.156.24h19.8a9.023 9.023 0 0 0 9.023-9.023V1.162A2.812 2.812 0 0 0 29.732 0a2.863 2.863 0 0 1 1.701 2.616z" transform="translate(11.829 8.891)"/>
    <path id="Fill_10" data-name="Fill 10" class="cls-4" d="M11.63 0v8.584a3.046 3.046 0 0 1-3.046 3.046H0v-.708L10.922 0z" transform="translate(11.581 8.645)"/>
    <path id="Fill_12" data-name="Fill 12" class="cls-5" d="M10.923 0v8.062a2.861 2.861 0 0 1-2.861 2.861H0z" transform="translate(11.581 8.645)"/>
    <path id="Fill_14" data-name="Fill 14" class="cls-5" d="M14.347 7.174A7.174 7.174 0 1 1 7.174 0a7.173 7.173 0 0 1 7.174 7.174" transform="translate(20.339 23.07)"/>
    <g id="x" transform="translate(25.181 27.914)">
        <path id="Shape" class="cls-6" d="M4.843 0 0 4.843"/>
        <path id="Shape-2" data-name="Shape" class="cls-6" d="m0 0 4.843 4.843"/>
    </g>
</svg>
