<svg id="menu_ic_menu_Profile_off" data-name="menu/ic_menu_Profile_off" xmlns="http://www.w3.org/2000/svg" width="24" height="24" viewBox="0 0 24 24" fill="#a7a7a7">
    <g id="그룹_1445" data-name="그룹 1445" transform="translate(-239 -724)">
        <g id="Group_21" data-name="Group 21" transform="translate(243 727)">
            <g id="Group_2" data-name="Group 2">
                <g id="Group_7" data-name="Group 7">
                    <path id="Fill_1" data-name="Fill 1" fill="current" d="M4.877 9.206A4.663 4.663 0 0 0 9.585 4.6 4.664 4.664 0 0 0 4.708 0 4.662 4.662 0 0 0 0 4.6a4.664 4.664 0 0 0 4.877 4.6" transform="translate(2.857)"/>
                    <path id="Fill_4" data-name="Fill 4" fill="current" d="M8.238 0H7.061A6.991 6.991 0 0 0 0 6.9a.664.664 0 0 0 .672.657h13.955A.664.664 0 0 0 15.3 6.9 6.992 6.992 0 0 0 8.238 0" transform="translate(0 10.438)"/>
                </g>
            </g>
        </g>
        <path id="Rectangle" transform="translate(239 724)" style="fill:none" d="M0 0h24v24H0z"/>
    </g>
</svg>
