<svg id="menu_ic_menu_off" data-name="menu/ic_menu_off" xmlns="http://www.w3.org/2000/svg" width="24" height="24" viewBox="0 0 24 24" fill="#a7a7a7">
  <g id="dashboard" transform="translate(3 3)">
    <path id="Combined_Shape" data-name="Combined Shape" fill="current" d="M11.23,18a1.589,1.589,0,0,1-1.588-1.587V9.945A1.59,1.59,0,0,1,11.23,8.357h5.182A1.589,1.589,0,0,1,18,9.945v6.468A1.589,1.589,0,0,1,16.412,18Zm-.3-8.055v6.468a.3.3,0,0,0,.3.3h5.182a.3.3,0,0,0,.3-.3V9.945a.3.3,0,0,0-.3-.3H11.23A.3.3,0,0,0,10.929,9.945ZM1.588,18A1.589,1.589,0,0,1,0,16.413v-3.9a1.589,1.589,0,0,1,1.588-1.588H6.77a1.589,1.589,0,0,1,1.588,1.588v3.9A1.589,1.589,0,0,1,6.77,18Zm-.3-5.484v3.9a.3.3,0,0,0,.3.3H6.77a.3.3,0,0,0,.3-.3v-3.9a.3.3,0,0,0-.3-.3H1.588A.3.3,0,0,0,1.286,12.516Zm.3-2.874A1.589,1.589,0,0,1,0,8.056V1.588A1.589,1.589,0,0,1,1.588,0H6.77A1.589,1.589,0,0,1,8.357,1.588V8.056A1.589,1.589,0,0,1,6.77,9.643Zm-.3-8.055V8.056a.3.3,0,0,0,.3.3H6.77a.3.3,0,0,0,.3-.3V1.588a.3.3,0,0,0-.3-.3H1.588A.3.3,0,0,0,1.286,1.588ZM11.23,7.071A1.589,1.589,0,0,1,9.643,5.485v-3.9A1.59,1.59,0,0,1,11.23,0h5.182A1.589,1.589,0,0,1,18,1.588v3.9a1.589,1.589,0,0,1-1.588,1.587Zm-.3-5.484v3.9a.3.3,0,0,0,.3.3h5.182a.3.3,0,0,0,.3-.3v-3.9a.3.3,0,0,0-.3-.3H11.23A.3.3,0,0,0,10.929,1.588Z" transform="translate(0 0)"/>
  </g>
</svg>
