<svg id="menu_ic_menu_off" data-name="menu/ic_menu_off" xmlns="http://www.w3.org/2000/svg" width="24" height="24" viewBox="0 0 24 24" fill="#a7a7a7">
  <g id="calculator" transform="translate(3 3)">
    <path id="Combined_Shape" data-name="Combined Shape" fill="current" d="M2.718,18A2.721,2.721,0,0,1,0,15.282V2.718A2.721,2.721,0,0,1,2.718,0H15.282A2.721,2.721,0,0,1,18,2.718V15.282A2.721,2.721,0,0,1,15.282,18ZM9.6,16.8h5.682A1.52,1.52,0,0,0,16.8,15.282V9.6H9.6ZM1.2,15.282A1.52,1.52,0,0,0,2.718,16.8H8.4V9.6H1.2ZM9.6,8.4h7.2V2.718A1.52,1.52,0,0,0,15.282,1.2H9.6ZM1.2,2.718V8.4H8.4V1.2H2.718A1.52,1.52,0,0,0,1.2,2.718ZM5.648,14.9,4.8,14.048l-.848.849a.6.6,0,1,1-.849-.849l.849-.848L3.1,12.352a.6.6,0,1,1,.849-.849l.848.849.849-.849a.6.6,0,1,1,.849.849l-.849.849.849.848a.6.6,0,0,1-.849.849ZM11.4,15a.6.6,0,1,1,0-1.2H15A.6.6,0,0,1,15,15Zm0-2.4a.6.6,0,1,1,0-1.2H15a.6.6,0,0,1,0,1.2Zm-7.2-6V5.4H3A.6.6,0,0,1,3,4.2H4.2V3A.6.6,0,0,1,5.4,3V4.2H6.6a.6.6,0,1,1,0,1.2H5.4V6.6a.6.6,0,1,1-1.2,0Zm7.2-1.2a.6.6,0,1,1,0-1.2H15a.6.6,0,0,1,0,1.2Z"/>
  </g>
</svg>
