<svg id="menu_ic_Search_off" data-name="menu/ic_Search_off" xmlns="http://www.w3.org/2000/svg" width="24" height="24" viewBox="0 0 24 24" fill="#a7a7a7">
  <path id="빼기_1" data-name="빼기 1" fill="current" d="M20597.109,19916a.891.891,0,0,1-.625-.258l-2.885-2.885a6.6,6.6,0,0,1-8.668-.584,6.6,6.6,0,1,1,11.279-4.668,6.539,6.539,0,0,1-1.355,4l2.885,2.879a.887.887,0,0,1,0,1.262A.9.9,0,0,1,20597.109,19916Zm-7.506-13.223a4.835,4.835,0,1,0,3.412,1.416A4.785,4.785,0,0,0,20589.6,19902.777Z" transform="translate(-20578 -19896)"/>
</svg>
