<svg id="menu_ic_menu_off" data-name="menu/ic_menu_off" xmlns="http://www.w3.org/2000/svg" width="24" height="24" viewBox="0 0 24 24" fill="#a7a7a7">
  <path id="빼기_3" data-name="빼기 3" fill="current" d="M20598.668,19957h-12a2,2,0,0,1-2-2v-7.332h-1a.669.669,0,0,1-.668-.666v-2.668a4.128,4.128,0,0,1,1.061-2.783l1.814-2a1.7,1.7,0,0,1,1.242-.549h11.074a1.643,1.643,0,0,1,1.3.631l1.609,2a4.181,4.181,0,0,1,.9,2.584V19947a.669.669,0,0,1-.668.666h-.666V19955A2,2,0,0,1,20598.668,19957Zm-7-5.666a1.335,1.335,0,0,0-1.334,1.334v3H20595v-3a1.332,1.332,0,0,0-1.33-1.334Zm-.006-1.334h2a2.672,2.672,0,0,1,2.668,2.668v3h2.332a.667.667,0,0,0,.666-.666v-7.332H20586V19955a.667.667,0,0,0,.666.666H20589v-3A2.669,2.669,0,0,1,20591.666,19950Zm3.512-9.664h0l.93,1.541a3.868,3.868,0,0,1,.559,2.033v2.424h4v-2.115a2.791,2.791,0,0,0-.625-1.758l-1.6-2a.344.344,0,0,0-.264-.125Zm-3.469.012h0l-1.336,2.232a2.613,2.613,0,0,0-.371,1.33v2.424h5.336v-2.436a2.632,2.632,0,0,0-.379-1.334l-1.338-2.217Zm-4.592,0a.322.322,0,0,0-.25.109l-1.809,2a2.8,2.8,0,0,0-.725,1.873v2h4.334v-2.424a3.959,3.959,0,0,1,.563-2.018l.932-1.541Z" transform="translate(-20580.002 -19935.998)"/>
</svg>
