<svg id="menu_ic_menu_off" data-name="menu/ic_menu_off" xmlns="http://www.w3.org/2000/svg" width="24" height="24" viewBox="0 0 24 24" fill="#a7a7a7">
  <g id="bill" transform="translate(5 3)">
    <path id="Combined_Shape" data-name="Combined Shape" fill="current" d="M13.956,17.872,11.669,16.2l-1.654,1.616a.663.663,0,0,1-.922,0L7.5,16.257,5.907,17.813a.662.662,0,0,1-.923,0L3.33,16.2,1.043,17.872A.67.67,0,0,1,.652,18a.66.66,0,0,1-.291-.067A.633.633,0,0,1,0,17.363V.637A.646.646,0,0,1,.653,0h13.7A.646.646,0,0,1,15,.637V17.363a.633.633,0,0,1-.361.57.666.666,0,0,1-.292.067A.657.657,0,0,1,13.956,17.872ZM7.961,14.9l1.593,1.557L11.147,14.9a.651.651,0,0,1,.46-.186.658.658,0,0,1,.392.128l1.7,1.242V1.274H1.3V16.088L3,14.846a.664.664,0,0,1,.853.059l1.593,1.557L7.039,14.9a.664.664,0,0,1,.922,0ZM4.076,11.979a.637.637,0,1,1,0-1.274h6.848a.637.637,0,1,1,0,1.274Zm0-3.345a.637.637,0,1,1,0-1.274h6.848a.637.637,0,1,1,0,1.274Zm0-3.345a.637.637,0,1,1,0-1.274h6.848a.637.637,0,1,1,0,1.274Z"/>
  </g>
</svg>
